<?xml version="1.0" encoding="UTF-8"?>
<svg width="106px" height="106px" viewBox="0 0 106 106" version="1.1" xmlns="http://www.w3.org/2000/svg" xmlns:xlink="http://www.w3.org/1999/xlink">
    <!-- Generator: Sketch 3.8.1 (29687) - http://www.bohemiancoding.com/sketch -->
    <title>sm_canoe</title>
    <desc>Created with Sketch.</desc>
    <defs></defs>
    <g id="Page-1" stroke="none" stroke-width="1" fill="none" fill-rule="evenodd">
        <polygon id="top-inner" stroke="#979797" fill="#726A5A" points="12.4415049 18.1715601 42.3387131 7.45584967 83.5265716 11.3561477 92.7481051 19.3773073 67.3581059 37.0517965 42.8838183 35.6824647 20.3542967 27.593298 12.7521782 23.3584786"></polygon>
        <path d="M5.41375484,52.725503 C4.32138751,40.0623693 3.8009506,24.5233069 3.8009506,24.5233069 C3.8009506,24.5233069 36.5356708,33.4835058 52.8874855,33.4424668 C69.6484122,33.400401 102.272852,24.5233069 102.272852,24.5233069 C102.272852,24.5233069 100.694244,35.4778531 99.7360879,52.725503 C98.1159041,79.3633177 96.1741784,85.0732896 93.5499725,92.1846147 C87.4070668,105.134125 66.9693466,105.577164 52.8874855,105.134125 C38.4329524,104.67936 16.8295312,104.732389 9.36683693,88.0974959 C6.79725361,85.0732896 6.27128281,65.0124583 5.41375484,52.725503 Z" id="Path-4" fill="#978C78"></path>
        <path d="M51.349923,29.8867188 C78.6419033,28.97852 104.072853,8 104.072853,8 L104.072853,23.5863503 C104.072853,23.5863503 76.6513395,42.1601562 51.349923,42.1601563 C26.0485065,42.1601563 1.8009506,23.5863504 1.8009506,23.5863504 L1.8009506,11.4033153 C1.8009506,11.4033153 24.0579426,30.7949175 51.349923,29.8867188 Z" id="top-front" stroke="#C2B8A6" fill="#C2B8A7"></path>
        <path d="M15.7596411,19.7003611 C15.7596411,19.7003611 37.0917734,14.3141458 53.4067796,13.9999997 C69.7217857,13.6858536 85.9093081,18.564186 85.9093081,18.564186 C85.9093081,18.564186 94.2991087,14.7355772 103.251242,7.60513161 C98.3063556,7.60513179 81.2067742,1.14054785 53.4067796,1.98146157 C25.6067849,2.82237529 2.06500093,9.87141345 1.87278408,10.2688607 C8.26236091,15.652791 15.7596411,19.7003611 15.7596411,19.7003611 Z" id="top-back" stroke="#A69A83" fill="#A69A83"></path>
        <path d="M40.7979538,70.1334128 C40.7979538,70.1334128 42.4687334,69.6760522 43.1520406,69.7514098 C48.8483611,70.3796213 76.0570778,72.4037424 78.8580278,72.4037423 C81.6589778,72.4037422 87.1791301,72.3772101 93.374679,72.9927947 C99.5702278,73.6083794 106.389613,72.0956797 106.389613,72.0956797" id="Line" stroke="#786F5E" stroke-width="2" stroke-linejoin="round" transform="translate(73.593784, 71.441569) rotate(-90.000000) translate(-73.593784, -71.441569) "></path>
        <path d="M-16.265325,65.5160091 C-13.765325,66.5160091 2.73467497,67.5160091 16.234675,67.0160091 C27.234675,66.0160091 34.3504658,65.4095455 36.734675,65.0160091 C36.8626653,64.9948831 45.0349831,63.9889436 47.3398427,63.6323319 C47.8616615,63.6327605 48.5160091,64.0628208 48.5160091,64.0628208" id="Line" stroke="#786F5E" stroke-width="2" stroke-linejoin="round" transform="translate(16.125342, 65.390667) rotate(-270.000000) translate(-16.125342, -65.390667) "></path>
        <path d="M23.3974149,75.2779796 C26.7936444,75.2325992 39.6977656,75.0226466 53.1977656,74.5226466 C64.1977656,73.5226466 69.4744108,73.9408078 71.85862,73.5472714 C71.9866103,73.5261454 81.7042883,73.0030663 84.0091479,72.6464545 C84.5309667,72.6468832 85.7726939,72.6464545 85.7726939,72.6464545" id="Line" stroke="#786F5E" stroke-width="2" stroke-linejoin="round" transform="translate(54.585054, 73.962217) rotate(-270.000000) translate(-54.585054, -73.962217) "></path>
        <path d="M54.1757953,62.4082726 C54.1757953,62.4082726 54.810856,62.1015954 55.1168121,62.2203033 C58.5353619,63.5466669 76.1645621,67.2134299 87.6645621,68.2134299 C97.1645621,69.2134299 109.401772,69.7966367 118.84451,69.6671218 C122.271489,69.1999736 123.275337,68.6784207 123.275337,68.6784207" id="Line" stroke="#786F5E" stroke-width="2" stroke-linejoin="round" transform="translate(88.725566, 65.938996) rotate(-90.000000) translate(-88.725566, -65.938996) "></path>
        <path d="M52.703614,69.930699 C57.0953201,69.5635414 61.6238002,69.9593471 71.4074039,70.5252107 C81.1910075,71.0910743 95.0108917,72.2641474 95.0108917,72.2641474" id="Line" stroke="#786F5E" stroke-width="2" stroke-linejoin="round" transform="translate(73.857253, 71.026318) rotate(-90.000000) translate(-73.857253, -71.026318) "></path>
        <path d="M3.1902089,72.7050767 C3.1902089,72.7050767 11.1953049,74.2970716 13.4725279,74.0328369 C18.9235113,74.6610706 33.4585127,74.1588245 37.1928001,74.0005415 C43.469843,73.3674457 61.8715893,70.6266182 65.5052143,70.2424068 C65.6950841,70.2187074 67.0536487,70.4349343 67.0536487,70.4349343" id="Line" stroke="#786F5E" stroke-width="2" stroke-linejoin="round" transform="translate(35.121929, 72.290609) rotate(-270.000000) translate(-35.121929, -72.290609) "></path>
        <path d="M10.874546,70.6271646 C14.0551443,70.0970649 20.592694,71.1490778 39.215624,70.3892479 C49.3299425,69.7214547 58.9966893,68.438523 58.9966893,68.438523" id="Line" stroke="#786F5E" stroke-width="2" stroke-linejoin="round" transform="translate(34.935618, 69.557249) rotate(-270.000000) translate(-34.935618, -69.557249) "></path>
    </g>
</svg>