<?xml version="1.0" encoding="UTF-8"?>
<svg width="441px" height="121px" viewBox="0 0 441 121" version="1.1" xmlns="http://www.w3.org/2000/svg" xmlns:xlink="http://www.w3.org/1999/xlink">
    <!-- Generator: Sketch 3.8.1 (29687) - http://www.bohemiancoding.com/sketch -->
    <title>sm_canoe</title>
    <desc>Created with Sketch.</desc>
    <defs>
        <path d="M40.2713561,36.8194629 C57.8839955,31.0034042 73.2856697,23.8166264 73.2856697,23.8166264 L78.8766566,34.9181679 C78.8766566,34.9181679 59.5786581,42.10497 40.2713561,48.1894407 C29.0275856,51.4447391 11.9714028,56.1264992 11.9714028,56.1264992 L7.0301378,45.6955768 C7.0301378,45.6955768 27.7246064,40.109878 40.2713561,36.8194629 Z" id="path-1"></path>
        <filter x="-50%" y="-50%" width="200%" height="200%" filterUnits="objectBoundingBox" id="filter-2">
            <feMorphology radius="1" operator="dilate" in="SourceAlpha" result="shadowSpreadOuter1"></feMorphology>
            <feOffset dx="0" dy="1" in="shadowSpreadOuter1" result="shadowOffsetOuter1"></feOffset>
            <feComposite in="shadowOffsetOuter1" in2="SourceAlpha" operator="out" result="shadowOffsetOuter1"></feComposite>
            <feColorMatrix values="0 0 0 0 0.470588235   0 0 0 0 0.435294118   0 0 0 0 0.368627451  0 0 0 1 0" type="matrix" in="shadowOffsetOuter1"></feColorMatrix>
        </filter>
        <path d="M39.7851118,52.1300356 C57.3977511,46.3139769 72.7994254,39.1271991 72.7994254,39.1271991 L78.3904123,50.2287406 C78.3904123,50.2287406 59.0924137,57.4155427 39.7851118,63.5000133 C28.5413413,66.7553118 11.4851584,71.4370719 11.4851584,71.4370719 L6.54389344,61.0061495 C6.54389344,61.0061495 27.238362,55.4204507 39.7851118,52.1300356 Z" id="path-3"></path>
        <filter x="-50%" y="-50%" width="200%" height="200%" filterUnits="objectBoundingBox" id="filter-4">
            <feMorphology radius="1" operator="dilate" in="SourceAlpha" result="shadowSpreadOuter1"></feMorphology>
            <feOffset dx="0" dy="1" in="shadowSpreadOuter1" result="shadowOffsetOuter1"></feOffset>
            <feComposite in="shadowOffsetOuter1" in2="SourceAlpha" operator="out" result="shadowOffsetOuter1"></feComposite>
            <feColorMatrix values="0 0 0 0 0.470588235   0 0 0 0 0.435294118   0 0 0 0 0.368627451  0 0 0 1 0" type="matrix" in="shadowOffsetOuter1"></feColorMatrix>
        </filter>
        <path d="M300.745319,59.8867188 C356.243932,53.6085153 404.775645,45.8506753 404.775645,45.8506753 L422.393221,57.8343466 C422.393221,57.8343466 361.583928,65.5922129 300.745319,72.1601563 C265.31544,75.6741211 211.570259,80.7278944 211.570259,80.7278944 L197.292172,70.6855084 C197.292172,70.6855084 261.209665,63.4385906 300.745319,59.8867188 Z" id="path-5"></path>
        <filter x="-50%" y="-50%" width="200%" height="200%" filterUnits="objectBoundingBox" id="filter-6">
            <feMorphology radius="1" operator="dilate" in="SourceAlpha" result="shadowSpreadOuter1"></feMorphology>
            <feOffset dx="0" dy="1" in="shadowSpreadOuter1" result="shadowOffsetOuter1"></feOffset>
            <feComposite in="shadowOffsetOuter1" in2="SourceAlpha" operator="out" result="shadowOffsetOuter1"></feComposite>
            <feColorMatrix values="0 0 0 0 0.470588235   0 0 0 0 0.435294118   0 0 0 0 0.368627451  0 0 0 1 0" type="matrix" in="shadowOffsetOuter1"></feColorMatrix>
        </filter>
    </defs>
    <g id="Page-1" stroke="none" stroke-width="1" fill="none" fill-rule="evenodd">
        <g id="top-front" transform="translate(42.953397, 39.971563) rotate(88.000000) translate(-42.953397, -39.971563) ">
            <use fill="black" fill-opacity="1" filter="url(#filter-2)" xlink:href="#path-1"></use>
            <use stroke="#B1A794" stroke-width="1" fill="#B1A794" fill-rule="evenodd" xlink:href="#path-1"></use>
        </g>
        <g id="top-front" transform="translate(42.467153, 55.282135) rotate(70.000000) translate(-42.467153, -55.282135) ">
            <use fill="black" fill-opacity="1" filter="url(#filter-4)" xlink:href="#path-3"></use>
            <use stroke="#C2B8A6" stroke-width="1" fill="#C2B8A7" fill-rule="evenodd" xlink:href="#path-3"></use>
        </g>
        <path d="M11.6456065,91.1526293 C6.84619241,78.4894957 2,55.2493144 2,55.2493144 C2,55.2493144 148.382542,71.9106322 220.22571,71.8695932 C293.866349,71.8275274 438.451419,55 438.451419,55 C438.451419,55 430.269002,73.9049794 426.059257,91.1526293 C424.946501,96.6116128 424.794164,98.0594278 422.528954,102.5944 C393.266533,104.764611 282.095631,118.540696 220.225708,118.097656 C156.718418,117.642892 28.8986807,103.619936 16.213725,103.024219 C13.7192631,99.9988944 15.4132327,103.439585 11.6456065,91.1526293 Z" id="Path-4" fill="#978C78"></path>
        <g id="top-front">
            <use fill="black" fill-opacity="1" filter="url(#filter-6)" xlink:href="#path-5"></use>
            <use stroke="#C2B8A6" stroke-width="1" fill="#C2B8A7" fill-rule="evenodd" xlink:href="#path-5"></use>
        </g>
        <path d="M8,78.1034413 C8,78.1034413 9.97402291,77.0481527 13.0335932,77.3649145 C38.5393907,80.0055669 161.111525,92.3326586 226.57817,92.3326586 C289.716265,92.3326586 413.799388,78.6267044 428.099427,77.0232912 C428.98785,76.9236754 429.890381,77.1758389 429.890381,77.1758389" id="Line" stroke="#786F5E" stroke-width="2" stroke-linejoin="round"></path>
        <ellipse id="Oval-1" fill="#7A766F" cx="404" cy="47.5" rx="1" ry="0.5"></ellipse>
        <ellipse id="Oval-1" fill="#7A766F" cx="418" cy="57.5" rx="1" ry="0.5"></ellipse>
        <path d="M15,102.165772 C15,102.165772 17.304451,102.031661 19.0644939,102.218883 C38.730037,104.310782 161.047216,117.043474 224.825392,117.043474 C286.403482,117.043474 406.559565,103.645877 420.875916,102.022294 C421.804399,101.916997 422.543213,102.218883 422.543213,102.218883" id="Line" stroke="#786F5E" stroke-width="2" stroke-linejoin="round"></path>
        <path d="M57,82 C76.6644307,83.6909297 167.41871,91.5718905 210.756114,91.5800111 C254.093519,91.5881316 373.695233,83.1462556 373.695233,83.1462556" id="Line" stroke="#786F5E" stroke-width="2" stroke-linejoin="round"></path>
        <ellipse id="Oval-1" fill="#7A766F" cx="202" cy="71.5" rx="1" ry="0.5"></ellipse>
        <ellipse id="Oval-1" fill="#7A766F" cx="212" cy="78.5" rx="1" ry="0.5"></ellipse>
        <circle id="Oval-1" fill="#7A766F" cx="24.5" cy="25.5" r="0.5"></circle>
        <circle id="Oval-1" fill="#7A766F" cx="18.5" cy="31.5" r="0.5"></circle>
    </g>
</svg>