<?xml version="1.0" encoding="UTF-8"?>
<svg width="463px" height="114px" viewBox="0 0 463 114" version="1.1" xmlns="http://www.w3.org/2000/svg" xmlns:xlink="http://www.w3.org/1999/xlink">
    <!-- Generator: Sketch 3.8.1 (29687) - http://www.bohemiancoding.com/sketch -->
    <title>sm_canoe</title>
    <desc>Created with Sketch.</desc>
    <defs></defs>
    <g id="Page-1" stroke="none" stroke-width="1" fill="none" fill-rule="evenodd">
        <polygon id="top-inner" stroke="#979797" fill="#726A5A" points="48.8838418 17.1715601 183.666526 6.45584967 369.349754 10.3561477 410.922299 18.3773073 296.459028 36.0517965 186.123971 34.6824647 84.5563132 26.593298 50.28442 22.3584786"></polygon>
        <path d="M22.3073822,60.725503 C17.5079681,48.0623693 12.6617757,24.822188 12.6617757,24.822188 C12.6617757,24.822188 159.044318,41.4835058 230.887486,41.4424668 C304.528124,41.400401 449.113195,24.5728736 449.113195,24.5728736 C449.113195,24.5728736 440.930778,43.4778531 436.721033,60.725503 C429.602609,87.3633177 421.071463,93.0732896 409.541778,100.184615 C382.55237,113.134125 292.757409,113.577164 230.887486,113.134125 C167.380195,112.67936 50.9652991,99.1217022 39.6756038,96.0974959 C28.3859084,93.0732896 26.0750084,73.0124583 22.3073822,60.725503 Z" id="Path-4" fill="#978C78"></path>
        <path d="M224.290889,28.8867188 C347.328678,27.97852 461.976563,7 461.976563,7 L461.976563,22.5863503 C461.976563,22.5863503 338.354812,41.1601562 224.290889,41.1601562 C110.226967,41.1601563 0.9140625,22.5863504 0.9140625,22.5863504 L0.9140625,10.4033153 C0.9140625,10.4033153 101.253101,29.7949175 224.290889,28.8867188 Z" id="top-front" stroke="#C2B8A6" fill="#C2B8A7"></path>
        <path d="M60.9996105,18.4488807 C60.9996105,18.4488807 160.012257,13.3141458 233.563617,12.9999997 C307.114977,12.6858536 384.968977,17.5886011 384.968977,17.5886011 C384.968977,17.5886011 421.862385,13.8789764 462.22042,6.7485308 C439.927868,6.74853098 358.891636,0.140547851 233.563617,0.981461569 C108.235597,1.82237529 2.62348274,9.88417997 1.75693016,10.2816272 C30.5624397,15.6655576 60.9996105,18.4488807 60.9996105,18.4488807 Z" id="top-back" stroke="#A69A83" fill="#A69A83"></path>
        <path d="M18.618144,47.7735095 C18.618144,47.7735095 20.5921669,46.718221 23.6517373,47.0349828 C49.1575347,49.6756352 171.729669,62.0027268 237.196314,62.0027268 C300.334409,62.0027268 424.417532,48.2967726 438.717571,46.6933595 C439.605994,46.5937437 440.508525,46.8459071 440.508525,46.8459071" id="Line" stroke="#786F5E" stroke-width="2" stroke-linejoin="round"></path>
        <path d="M25.5463948,71.7260741 C25.5463948,71.7260741 27.8508458,71.5919629 29.6108886,71.7791854 C49.2764318,73.8710845 171.593611,86.6037757 235.371787,86.6037757 C296.949877,86.6037757 417.10596,73.2061788 431.42231,71.5825961 C432.350794,71.477299 433.089608,71.7791854 433.089608,71.7791854" id="Line" stroke="#786F5E" stroke-width="2" stroke-linejoin="round"></path>
        <path d="M67.7428004,51.4223297 C87.4072311,53.1132594 178.16151,60.9942202 221.498915,61.0023407 C264.836319,61.0104613 384.438033,52.5685853 384.438033,52.5685853" id="Line" stroke="#786F5E" stroke-width="2" stroke-linejoin="round"></path>
    </g>
</svg>