<?xml version="1.0" encoding="UTF-8"?>
<svg width="155px" height="180px" viewBox="0 0 155 180" version="1.1" xmlns="http://www.w3.org/2000/svg" xmlns:xlink="http://www.w3.org/1999/xlink">
    <!-- Generator: Sketch 3.8.1 (29687) - http://www.bohemiancoding.com/sketch -->
    <title>Slice 1</title>
    <desc>Created with Sketch.</desc>
    <defs></defs>
    <g id="Page-1" stroke="none" stroke-width="1" fill="none" fill-rule="evenodd">
        <rect id="Rectangle-1" fill="#B9A296" transform="translate(72.594527, 6.507068) rotate(-1.000000) translate(-72.594527, -6.507068) " x="69.094527" y="1.06025385" width="7" height="10.8936288" rx="3.5"></rect>
        <rect id="Rectangle-1" fill="#7C635A" transform="translate(74.441897, 125.052859) rotate(-1.000000) translate(-74.441897, -125.052859) " x="70.9418969" y="71.052859" width="7" height="108" rx="3.5"></rect>
        <path d="M11.4534918,76.338516 C12.6453923,77.9749319 13.8438731,77.9759218 20.4711535,77.884791 C29.4850521,77.7014644 113.560585,81.9564963 137.349526,72.218438 C150.114101,68.5777089 152.961288,46.825596 152.961288,41.3073078 C152.961288,29.6038624 149.037835,11.2411819 137.487206,8.93197272 C110.852495,4.00340285 25.5377414,4.58505978 21.0783716,4.58505978 C13.5441253,4.58505978 13.2894033,5.18276543 11.7981052,5.10288536 C11.0144668,9.97301422 5.91004185,35.5184539 5.91004185,41.307309 C5.91004185,47.8464591 10.6461108,71.0201408 11.4534918,76.338516 Z" id="Oval-1" fill="#73574E"></path>
        <path d="M11.7017377,77.8847905 C14.5585912,77.8847925 13.8438731,77.9759218 20.4711535,77.884791 C29.4850521,77.7014644 113.560585,81.9564963 137.349526,72.218438 C150.114101,68.5777089 152.961288,46.825596 152.961288,41.3073078 C152.961288,29.6038624 149.037835,11.2411819 137.487206,8.93197272 C143.614579,19.6717865 191.773942,79.521205 11.7017377,77.8847905 Z" id="Oval-1" fill="#8B6F67"></path>
        <path d="M8.18079772,66.4387381 C9.33710938,72.6550163 8.76161645,76.2664824 11.7684256,77.4065702 C12.6537855,77.742271 11.4168045,77.5735181 11.8854445,78.0295582 C24.2491194,81.1527982 26.1344815,61.5884472 26.1344815,41.307309 C26.1344815,21.0261708 22.8941622,2.25405372 11.8854445,4.58505978 C9.41672761,7.52177467 9.44199721,6.78575753 7.93254176,13.0627671 C6.27138937,19.9706022 6.73545906,30.7438462 6.73545906,41.3695883 C6.73545906,50.3834691 6.98335614,60.0013474 8.18079772,66.4387381 Z" id="Oval-1" fill="#978C78"></path>
        <path d="M12.6883017,78.0295582 C21.4144203,78.0295582 23.3766034,61.5884472 23.3766034,41.307309 C23.3766034,21.0261708 20.117916,4.58505978 12.6883017,4.58505978 C5.25868739,4.58505978 2,21.0261708 2,41.307309 C2,61.5884472 3.96218307,78.0295582 12.6883017,78.0295582 Z" id="Oval-1" fill="#D7D1C7"></path>
    </g>
</svg>