<?xml version="1.0" encoding="UTF-8"?>
<svg width="34px" height="540px" viewBox="0 0 34 540" version="1.1" xmlns="http://www.w3.org/2000/svg" xmlns:xlink="http://www.w3.org/1999/xlink">
    <!-- Generator: Sketch 3.8.1 (29687) - http://www.bohemiancoding.com/sketch -->
    <title>hook</title>
    <desc>Created with Sketch.</desc>
    <defs></defs>
    <g id="Page-1" stroke="none" stroke-width="1" fill="none" fill-rule="evenodd">
        <path d="M26.5,464.5 L26.5,521.5" id="Line" stroke="#545E6E" stroke-width="3" stroke-linecap="square"></path>
        <path d="M26.5,0.499999977 L26.5,449.5" id="Line" stroke="#7987A1" stroke-linecap="square"></path>
        <ellipse id="Oval-1" stroke="#232D37" stroke-width="3" cx="27" cy="457.5" rx="4" ry="5.5"></ellipse>
        <path d="M26.1925845,450.098097 C26.1925845,450.098097 29.300488,449.267965 29.3950284,452.307756 C29.431082,453.467002 28.6489207,454.258287 28.0347972,454.449962 C27.0385578,454.760901 26.1925845,453.759132 26.1925845,453.759132" id="Path-2" stroke="#7987A1"></path>
        <path d="M21.7693499,460.011893 C21.6362946,459.507946 21.4808038,458.38334 21.4706406,457.695743 C21.4587303,456.889949 21.6052712,456.553097 21.6052712,456.553097 C21.6052712,456.553097 22.4086275,459.106617 23.9589781,461.048144 C25.5404417,463.232636 29.0056137,464.011725 29.0056137,464.011725 C29.0056137,464.011725 28.1035298,464.496963 26.8833946,464.495312 C25.8000935,464.493845 24.4660778,464.108572 23.2901001,462.659119 C22.7079823,462.051961 21.9925576,460.857292 21.7693499,460.011893 Z" id="Path-3" fill="#545E6E"></path>
        <path d="M26.5530453,522.712233 C26.5530453,522.712233 26.5767543,525.915509 26.0602907,528.19446 C25.6288479,530.098247 25.3931446,531.887371 24.4719105,533.669231 C23.2318336,536.067801 22.2687231,536.594275 18.9315491,537.908831 C10.3691736,538.40623 7.76221585,533.669231 7.76221585,533.669231 C7.76221585,533.669231 6.04388905,532.298666 4.79834695,526.07698 C4,521.806046 4,515 4,515" id="Path-5" stroke="#576073" stroke-width="3"></path>
        <path d="M5.58443403,511.020532 C6.42907594,514.036598 8.5287043,520.041852 8.5287043,520.041852 C8.5287043,520.041852 5.36563068,516.868439 3.85774779,515.518443 C2.85606258,514.621642 1,513.301463 1,513.301463 C1,513.301463 1.9052017,509.862016 2.1812191,507.945851 C2.54387926,505.428195 2.91603267,500 2.91603267,500 C2.91603267,500 4.5581854,507.35598 5.58443403,511.020532 Z" id="Path-6" stroke="#A5ABB9" fill="#A1A9B6"></path>
        <path d="M6.20153539,510.889896 C4.94381648,506.335722 2.7596678,496.92564 2.7596678,496.92564 L4.49787029,511.699472 L9.64340276,521.851499 C9.64340276,521.851499 7.2383948,514.644342 6.20153539,510.889896 Z" id="Path-7" fill="#CBD1DA"></path>
        <path d="M3.93993972,516.40057 C3.93993972,516.40057 4.27043362,522.856751 4.69954262,526.095725 C6.51592649,531.466473 9.00329293,532.932151 9.00329293,532.932151 C9.00329293,532.932151 6.73669998,528.490029 6.47161625,525.534018 C5.65260003,521.397736 5.65260001,517.837597 5.65260001,517.837597 L3.93993972,516.40057 Z" id="Path-8" fill="#2F3238"></path>
    </g>
</svg>