<?xml version="1.0" encoding="UTF-8"?>
<svg width="638px" height="505px" viewBox="0 0 638 505" version="1.1" xmlns="http://www.w3.org/2000/svg" xmlns:xlink="http://www.w3.org/1999/xlink">
    <!-- Generator: Sketch 3.8.1 (29687) - http://www.bohemiancoding.com/sketch -->
    <title>Slice 1</title>
    <desc>Created with Sketch.</desc>
    <defs></defs>
    <g id="Page-1" stroke="none" stroke-width="1" fill="none" fill-rule="evenodd">
        <path d="M40.8161854,448.546963 C25.1837663,423.231213 -23.1269564,444.10711 15.8435291,393.39462 C74.628883,371.315554 103.513195,341.848779 130.585717,334.089932 C152.639413,325.250779 169.731458,343.812207 212.917748,336.914151 C236.261007,323.343626 266.177796,304.953499 300.941185,305.000088 C332.467523,306.316295 360.903521,336.914151 387.499779,350.933682 C410.797815,355.019107 407.923045,340.855568 467.948998,357.062588 C506.977684,368.414855 530.228956,395.156863 567.33181,399.48837 C588.650252,405.678558 604.619323,399.077755 634.597435,411.972745 C648.561226,432.627572 609.152123,461.347745 609.152123,461.347745 C609.152123,461.347745 570.745213,488.679881 511.714623,495.73837 C452.684032,502.796859 412.84796,497.640713 370.70681,489.859463 C328.565661,482.078213 254.319266,505.792895 213.913842,504.367276 C173.508417,502.941657 182.578918,485.639378 150.167748,482.078213 C117.756578,478.517049 106.613362,499.229235 72.8083729,488.86337 C54.2859233,483.178992 57.1311111,475.889539 40.8161854,448.546963 Z" id="Path-1" fill="#F0E9C5"></path>
        <path d="M279.183945,385.605408 C272.500923,385.711134 267.23971,382 267.23971,382 C267.23971,382 262.200363,299.849149 267.23971,235.868079 C272.279057,171.88701 293.064304,102 293.064304,102 L301.831116,108.661934 C301.831116,108.661934 285.657993,166.056303 283.415558,235.868079 C281.173123,305.679856 293.064305,381.59145 293.064305,381.59145 C293.064305,381.59145 285.866966,385.499681 279.183945,385.605408 Z" id="Path-2" fill="#978C78"></path>
        <path d="M261.335197,84.0178337 C276.763341,85.5327469 303.246892,91.7520366 303.246892,91.7520366 C303.246892,91.7520366 285.868608,67.8581617 276.168719,58.2605542 C264.622115,46.8357032 239.507413,28.6846611 239.507413,28.6846611 L243.305967,49.5031479 C243.305967,49.5031479 222.160298,38.0637424 210.804247,34.1253739 C197.648029,29.5626931 169.76916,24 169.76916,24 L187.929327,46.6007312 C187.929327,46.6007312 165.002956,45.0022252 155.46555,46.600732 C141.813716,48.8888331 118.361608,58.2605551 118.361608,58.2605551 C118.361608,58.2605551 142.983819,60.9625217 155.46555,63.3967705 C162.878303,64.8424421 178.04506,69.9003162 178.04506,69.9003162 L166.134452,76.9958557 C166.134452,76.9958557 191.974656,72.343593 203.530935,72.0298731 C212.790913,71.7784912 228.583224,75.3005501 228.583224,75.3005501 L224.480384,84.0178317 C224.480384,84.0178317 250.507838,82.9546786 261.335197,84.0178337 Z" id="Path-3" fill="#91C187"></path>
        <path d="M265.934259,118.524499 C273.787521,110.852862 291.461375,98.8477097 291.461375,98.8477097 C291.461375,98.8477097 270.516615,92.9515853 259.783251,91.919531 C246.498929,90.6421924 219.408317,91.919531 219.408317,91.919531 L234.543722,108.478639 C234.543722,108.478639 219.321385,107.343871 211.600752,108.478639 C196.538336,110.692491 166.194575,118.524498 166.194575,118.524498 L199.564033,125.997034 C199.564033,125.997034 177.948592,144.283955 169.620598,157.543087 C161.292603,170.802218 161.420984,186.725184 161.420984,186.725184 C161.420984,186.725184 179.072709,168.920434 190.419854,162.481761 C201.766999,156.043088 214.010428,156.884529 214.010428,156.884529 L215.312316,166.028202 C215.312316,166.028202 224.361907,150.491785 230.063012,145.019645 C235.040946,140.241633 247.349433,135.277748 247.349433,135.277748 L247.349433,141.939458 C247.349433,141.939458 259.08354,125.216778 265.934259,118.524499 Z" id="Path-4" fill="#91C187"></path>
        <path d="M321.404192,72.6581195 C315.325912,76.3756357 307.099263,84.7705643 307.099263,84.7705643 C307.099263,84.7705643 293.162736,74.54949 295.077732,50.9823699 C296.992727,27.4152499 313.654386,4.09915662 313.654386,4.09915662 L317.30881,24.6971647 C317.30881,24.6971647 318.924865,17.006083 326.615108,10.062445 C334.305351,3.11880698 344.598982,0.0564501725 344.598982,0.0564501725 L340.594343,14.7350528 C340.594343,14.7350528 352.318762,9.90842434 358.428693,10.062445 C363.89618,10.2002707 375.326596,15.6105919 375.326596,15.6105919 C375.326596,15.6105919 369.058249,18.0137938 367.93781,19.2300551 C366.595319,20.6873602 367.937808,23.631291 367.937808,23.631291 C367.937808,23.631291 372.902202,22.5093562 375.326597,23.6312907 C377.503223,24.6385656 381.740872,30.0189195 381.740872,30.0189195 C381.740872,30.0189195 369.264999,33.3651553 364.391943,36.0246356 C357.630481,39.7147169 346.837317,49.0676041 346.837317,49.0676041 L358.428693,49.0676041 C358.428693,49.0676041 346.537407,53.4353553 339.962431,57.0068934 C336.962308,58.6365649 329.703398,64.6712328 329.703398,64.6712328 L339.962432,64.6712328 C339.962432,64.6712328 326.280301,69.6758585 321.404192,72.6581195 Z" id="Path-5" fill="#91C187"></path>
        <path d="M317.030922,90.1760663 C317.030922,90.1760663 330.31755,77.4607343 339.575416,70.8195177 C347.539022,65.1067512 368.69534,53.1141172 368.69534,53.1141172 L362.083116,67.2102961 C362.083116,67.2102961 384.426103,60.8777513 394.922928,60.813448 C408.66077,60.7292903 434.787119,66.7649132 434.787119,66.7649132 L416.446479,80.8344452 C416.446479,80.8344452 433.49209,87.2308409 439.181076,91.1515394 C447.755764,97.0609874 459.237499,110.324885 459.237499,110.324885 C459.237499,110.324885 434.647366,103.415273 424.72863,102.842633 C417.328188,102.415382 407.279965,107.325212 407.279965,107.325212 L411.874642,115.410625 C411.874642,115.410625 400.52686,106.958761 394.922928,105.322892 C389.007811,103.596183 377.317496,105.322892 377.317496,105.322892 L384.0896,115.364944 C384.0896,115.364944 365.53846,106.875779 354.152588,102.842633 C345.820523,99.8912175 324.93579,94.4112585 324.93579,94.4112585 L322.984587,93.7200961 L318.223993,91.1515376" id="Path-6" fill="#91C187"></path>
        <path d="M322.566024,123.893588 C317.705462,112.766043 306.471312,97.525465 306.471312,97.525465 C306.471312,97.525465 320.485205,100.187607 328.146508,102.609209 C337.11348,105.443509 356.356139,113.293172 356.356139,113.293172 L347.64356,116.954075 C347.64356,116.954075 365.987459,122.738724 371.413749,126.516475 C379.576033,132.19901 388.409282,145.334934 388.409282,145.334934 C388.409282,145.334934 381.822642,142.008733 379.394118,141.972778 C376.578618,141.931093 372.677211,145.102014 372.677211,145.102014 C372.677211,145.102014 377.060086,163.293959 376.830237,171.989147 C376.638932,179.226229 371.413748,192.898825 371.413748,192.898825 C371.413748,192.898825 367.784589,179.035116 363.015303,171.989147 C360.343172,168.041436 349.089497,159.917785 349.089497,159.917785 L348.368838,164.852155 C348.368838,164.852155 342.466399,150.54603 339.813327,147.147663 C336.512496,142.919571 330.507128,141.972777 330.507128,141.972777 L328.146509,147.147664 C328.146509,147.147664 324.930528,129.306775 322.566024,123.893588 Z" id="Path-7" fill="#91C187"></path>
        <circle id="Oval-1" fill="#7D7552" cx="310" cy="122" r="7"></circle>
    </g>
</svg>